<?xml version="1.0" encoding="UTF-8"?>
<svg width="18px" height="18px" viewBox="0 0 18 18" version="1.1" xmlns="http://www.w3.org/2000/svg" xmlns:xlink="http://www.w3.org/1999/xlink">
    <g id="Apple" stroke="none" stroke-width="1" fill="none" fill-rule="evenodd">
        <path d="M15.1464844,5.64550781 C14.7753906,6.0234375 14.0742188,6.48925781 13.2539063,6.43710937 C13.1777344,5.59570312 13.5839844,4.71972656 13.921875,4.18945312 C14.328125,3.57617187 15.1132813,3.14648437 15.8398438,3.125 C15.8974609,4.01953125 15.5507813,4.8609375 15.1464844,5.64550781 Z M15.8222656,6.54140625 C14.6132813,6.47070312 13.5839844,7.27382812 12.9882813,7.27382812 C12.375,7.27382812 11.4628906,6.57617187 10.4863281,6.59765625 C9.21875,6.61914062 8.0625,7.36914062 7.44921875,8.55078125 C6.1640625,10.9316406 7.11914063,14.4492187 8.35742188,16.3671875 C8.96679688,17.3085937 9.69824219,18.3574219 10.6796875,18.3222656 C11.6259766,18.2871094 11.9902344,17.7216797 13.1425781,17.7216797 C14.2949219,17.7216797 14.6308594,18.3222656 15.6289063,18.3046875 C16.6621094,18.2871094 17.2929688,17.3437499 17.8847656,16.3847656 C18.5683594,15.3007812 18.8447266,14.2519531 18.8623047,14.1933594 C18.8447266,14.1757813 16.0878906,13.1972656 16.0703125,10.0371094 C16.0527344,7.39648437 18.2705078,6.27148437 18.3583984,6.21933594 C17.4814453,4.86093749 16.1054688,4.73828124 15.6289063,4.70312499 C14.4550781,4.61914062 13.4042969,5.48242187 12.8125,5.48242187 C12.2382813,5.48242187 11.3437501,4.72460937 10.3496094,4.72460937 L10.3496094,4.72460937 Z" id="Shape" fill="#000000" fill-rule="nonzero"></path>
    </g>
</svg>
